# File created by Blade
# Date/Time:  Tue Jan 27 17:27:44 2015
#---------------------------------------------------------
:version 1.10
:name HOM
:units
  mass 1.0
  length 1.000000
  angle deg
:documentation
     Acclaim Skeleton File
:root
   axis xyz
   order TX TY TZ RX RY RZ
   position 0.000000 0.000000 0.000000
   orientation 0 0 0
:bonedata
   begin
      id 1
      name Spine_dum
      direction 0.000000 1.000000 0.000000
      length 7.539951
      axis 0.0 0.0 0.0 xyz
   end
   begin
      id 2
      name LeftUpLeg_dum
      direction 1.000000 0.000000 0.000000
      length 3.345476
      axis 0.0 0.0 0.0 xyz
   end
   begin
      id 3
      name RightUpLeg_dum
      direction -1.000000 0.000000 0.000000
      length 3.345476
      axis 0.0 0.0 0.0 xyz
   end
   begin
      id 4
      name Spine
      direction 0.000000 1.000000 0.000000
      length 0.000000
      axis 0.0 0.0 0.0 xyz
      dof rx ry rz
   end
   begin
      id 5
      name Spine_dum1
      direction 0.000000 1.000000 0.000000
      length 15.093809
      axis 0.0 0.0 0.0 xyz
   end
   begin
      id 6
      name Spine_dum2
      direction 0.000000 1.000000 0.000000
      length 9.738928
      axis 0.0 0.0 0.0 xyz
   end
   begin
      id 7
      name Spine_dum3
      direction 0.000000 1.000000 0.000000
      length 9.738928
      axis 0.0 0.0 0.0 xyz
   end
   begin
      id 8
      name Head
      direction 0.000000 1.000000 0.000000
      length 4.527550
      axis 0.0 0.0 0.0 xyz
      dof rx ry rz
   end
   begin
      id 9
      name LeftShoulder
      direction 1.000000 0.000000 0.000000
      length 7.084015
      axis 0.0 0.0 -90.0 xyz
      dof rx ry rz
   end
   begin
      id 10
      name LeftArm
      direction 1.000000 0.000000 0.000000
      length 10.259319
      axis 0.0 0.0 -90.0 xyz
      dof rx ry rz
   end
   begin
      id 11
      name LeftForeArm
      direction 1.000000 0.000000 0.000000
      length 9.896984
      axis 0.0 0.0 -90.0 xyz
      dof ry rz rx
   end
   begin
      id 12
      name LeftHand
      direction 0.000000 0.000000 0.000000
      length 0.000000
      axis 0.0 0.0 -90.0 xyz
      dof rx ry rz
   end
   begin
      id 13
      name LeftHand_dum1
      direction 0.000000 0.000000 0.000000
      length 0.000000
      axis 0.0 0.0 -90.0 xyz
   end
   begin
      id 14
      name LeftHand_dum2
      direction 1.000000 0.000000 0.000000
      length 3.937000
      axis 0.0 0.0 -90.0 xyz
   end
   begin
      id 15
      name LeftHandThumb1
      direction 0.000000 0.000000 1.000000
      length 3.937000
      axis 0.0 0.0 -90.0 xyz
      dof rx rz ry
   end
   begin
      id 16
      name RightShoulder
      direction -1.000000 0.000000 0.000000
      length 7.084015
      axis 0.0 0.0 90.0 xyz
      dof rx ry rz
   end
   begin
      id 17
      name RightArm
      direction -1.000000 0.000000 0.000000
      length 10.259319
      axis 0.0 0.0 90.0 xyz
      dof rx ry rz
   end
   begin
      id 18
      name RightForeArm
      direction -1.000000 0.000000 0.000000
      length 9.896984
      axis 0.0 0.0 90.0 xyz
      dof ry rz rx
   end
   begin
      id 19
      name RightHand
      direction 0.000000 0.000000 0.000000
      length 0.000000
      axis 0.0 0.0 90.0 xyz
      dof rx ry rz
   end
   begin
      id 20
      name RightHand_dum1
      direction 0.000000 0.000000 0.000000
      length 0.000000
      axis 0.0 0.0 90.0 xyz
   end
   begin
      id 21
      name RightHand_dum2
      direction -1.000000 0.000000 0.000000
      length 3.937000
      axis 0.0 0.0 90.0 xyz
   end
   begin
      id 22
      name RightHandThumb1
      direction 0.000000 0.000000 1.000000
      length 3.937000
      axis 0.0 0.0 90.0 xyz
      dof rx rz ry
   end
   begin
      id 23
      name LeftUpLeg
      direction 0.000000 -1.000000 0.000000
      length 19.114733
      axis 0.0 0.0 0.0 xyz
      dof rx ry rz
   end
   begin
      id 24
      name LeftLeg
      direction 0.000000 -1.000000 0.000000
      length 16.045604
      axis 0.0 0.0 0.0 xyz
      dof rx ry rz
   end
   begin
      id 25
      name LeftFoot
      direction 0.000000 -0.258819 0.965926
      length 5.543155
      axis 15.0 0.0 0.0 xyz
      dof rx ry rz
   end
   begin
      id 26
      name LeftToeBase
      direction 0.000000 0.000000 1.000000
      length 2.952750
      axis 0.0 0.0 0.0 xyz
      dof rx ry rz
   end
   begin
      id 27
      name RightUpLeg
      direction 0.000000 -1.000000 0.000000
      length 19.114733
      axis 0.0 0.0 0.0 xyz
      dof rx ry rz
   end
   begin
      id 28
      name RightLeg
      direction 0.000000 -1.000000 0.000000
      length 16.045604
      axis 0.0 0.0 0.0 xyz
      dof rx ry rz
   end
   begin
      id 29
      name RightFoot
      direction 0.000000 -0.258819 0.965926
      length 5.543155
      axis 15.0 0.0 0.0 xyz
      dof rx ry rz
   end
   begin
      id 30
      name RightToeBase
      direction 0.000000 0.000000 1.000000
      length 2.952750
      axis 0.0 0.0 0.0 xyz
      dof rx ry rz
   end
:hierarchy
   begin
      root Spine_dum LeftUpLeg_dum RightUpLeg_dum
      Spine_dum Spine
      LeftUpLeg_dum LeftUpLeg
      RightUpLeg_dum RightUpLeg
      Spine Spine_dum1 Spine_dum2 Spine_dum3
      Spine_dum1 Head
      Spine_dum2 LeftShoulder
      Spine_dum3 RightShoulder
      LeftShoulder LeftArm
      LeftArm LeftForeArm
      LeftForeArm LeftHand
      LeftHand LeftHand_dum1 LeftHand_dum2
      LeftHand_dum1 LeftHandThumb1
      RightShoulder RightArm
      RightArm RightForeArm
      RightForeArm RightHand
      RightHand RightHand_dum1 RightHand_dum2
      RightHand_dum1 RightHandThumb1
      LeftUpLeg LeftLeg
      LeftLeg LeftFoot
      LeftFoot LeftToeBase
      RightUpLeg RightLeg
      RightLeg RightFoot
      RightFoot RightToeBase
   end

# File created by Blade
# Date/Time:  Tue Jan 27 17:27:32 2015
# Frame Rate: 120.000 fps
#------------------------------------------------------
:FULLY-SPECIFIED
:DEGREES
905
root 3.856303 37.692323 0.206934 -7.673046 41.083907 -17.520191
Spine 4.434619 0.145357 18.492583
Head 4.256340 -16.269219 9.241928
LeftShoulder -1.846238 -9.265655 7.193372
LeftArm 3.340801 -11.225866 -59.370068
LeftForeArm 6.641752 0.000000 100.076976
LeftHand -14.863008 -0.000000 41.964662
LeftHandThumb1 -26.253704 0.000000 33.147579
RightShoulder -8.511320 -20.430463 1.227230
RightArm 9.771308 -18.770153 62.060566
RightForeArm 188.349414 -0.000000 21.421321
RightHand 1.119811 -0.000000 2.463738
RightHandThumb1 -24.326973 -0.000000 -32.862282
LeftUpLeg -10.111370 -12.758201 12.166112
LeftLeg 15.059411 -0.000000 -0.000000
LeftFoot -10.423296 -20.629087 -11.348602
LeftToeBase 15.334315 -0.000000 -0.000000
RightUpLeg -49.635979 4.991368 -12.362405
RightLeg 108.141611 -0.000000 -0.000000
RightFoot -1.315982 3.826312 -3.105264
RightToeBase -0.056448 -0.000000 0.000000
906
root 3.854630 37.693504 0.193049 -7.558574 40.780131 -17.468878
Spine 4.522748 0.463368 18.447549
Head 4.286060 -16.218274 9.327656
LeftShoulder -1.916712 -9.247826 7.207650
LeftArm 3.424156 -11.134437 -59.347986
LeftForeArm 6.582980 -0.000000 100.203319
LeftHand -14.833519 -0.000000 42.020316
LeftHandThumb1 -26.253704 0.000000 33.147579
RightShoulder -8.447275 -20.406248 1.237769
RightArm 9.850384 -18.808056 62.055490
RightForeArm 188.443526 -0.000000 21.440724
RightHand 1.152325 0.000000 2.528077
RightHandThumb1 -24.326973 -0.000000 -32.862282
LeftUpLeg -10.112108 -12.585561 12.168790
LeftLeg 15.047846 -0.000000 -0.000000
LeftFoot -10.445578 -20.539746 -11.436468
LeftToeBase 15.386847 -0.000000 -0.000000
RightUpLeg -49.787157 4.591577 -12.272085
RightLeg 107.643772 -0.000000 -0.000000
RightFoot -1.481266 3.679346 -3.169470
RightToeBase -0.228992 -0.000000 0.000000
907
root 3.850347 37.694189 0.180810 -7.428815 40.456273 -17.409861
Spine 4.595765 0.784401 18.386564
Head 4.375900 -16.128599 9.364863
LeftShoulder -1.999066 -9.223298 7.254415
LeftArm 3.461970 -11.025522 -59.341211
LeftForeArm 6.621658 -0.000000 100.319949
LeftHand -14.808370 -0.000000 42.136795
LeftHandThumb1 -26.253704 0.000000 33.147579
RightShoulder -8.373652 -20.400201 1.250470
RightArm 9.950587 -18.831765 62.048863
RightForeArm 188.506019 -0.000000 21.488319
RightHand 1.181726 -0.000000 2.415777
RightHandThumb1 -24.326973 -0.000000 -32.862282
LeftUpLeg -10.113547 -12.414287 12.174856
LeftLeg 15.025610 -0.000000 -0.000000
LeftFoot -10.485267 -20.412617 -11.478746
LeftToeBase 15.397680 -0.000000 -0.000000
RightUpLeg -49.947842 4.155051 -12.091024
RightLeg 107.130166 -0.000000 -0.000000
RightFoot -1.761804 3.551063 -3.293890
RightToeBase -0.043930 -0.000000 0.000000
908
root 3.849233 37.694522 0.167060 -7.294237 40.082005 -17.321245
Spine 4.704028 1.124894 18.318791
Head 4.458744 -16.024240 9.359534
LeftShoulder -2.092434 -9.198484 7.259107
LeftArm 3.504404 -10.908983 -59.266766
LeftForeArm 6.638282 -0.000000 100.454811
LeftHand -14.778546 0.000000 42.186045
LeftHandThumb1 -26.253704 0.000000 33.147579
RightShoulder -8.292459 -20.390738 1.252051
RightArm 10.065527 -18.873132 62.027752
RightForeArm 188.631448 -0.000000 21.500283
RightHand 1.010974 -0.000000 2.462283
RightHandThumb1 -24.326973 -0.000000 -32.862282
LeftUpLeg -10.076885 -12.247593 12.152008
LeftLeg 14.993094 -0.000000 -0.000000
LeftFoot -10.532328 -20.231524 -11.529512
LeftToeBase 15.375634 -0.000000 -0.000000
RightUpLeg -50.109748 3.729246 -11.834390
RightLeg 106.577406 -0.000000 -0.000000
RightFoot -1.948670 3.418466 -3.355530
RightToeBase 0.093772 -0.000000 -0.000000
909
root 3.848612 37.693945 0.152439 -7.125139 39.679212 -17.197813
Spine 4.799489 1.501826 18.213158
Head 4.559603 -15.891424 9.358799
LeftShoulder -2.162402 -9.193505 7.264299
LeftArm 3.521272 -10.801640 -59.190455
LeftForeArm 6.658179 0.000000 100.605525
LeftHand -14.708470 -0.000000 42.329297
LeftHandThumb1 -26.253704 0.000000 33.147579
RightShoulder -8.225663 -20.369382 1.269688
RightArm 10.154243 -18.916132 61.995215
RightForeArm 188.751032 -0.000000 21.599841
RightHand 1.029623 -0.000000 2.420492
RightHandThumb1 -24.326973 -0.000000 -32.862282
LeftUpLeg -10.047726 -12.071915 12.105530
LeftLeg 14.966320 -0.000000 -0.000000
LeftFoot -10.584218 -20.036149 -11.587923
LeftToeBase 15.411929 -0.000000 -0.000000
RightUpLeg -50.297066 3.268458 -11.523493
RightLeg 106.011816 -0.000000 -0.000000
RightFoot -2.126276 3.331970 -3.435122
RightToeBase 0.218313 -0.000000 -0.000000
910
root 3.847350 37.692243 0.134381 -6.830032 39.251648 -17.034406
Spine 4.766773 1.919102 18.065135
Head 4.720849 -15.750905 9.314734
LeftShoulder -2.249367 -9.171927 7.253096
LeftArm 3.510340 -10.655332 -59.038897
LeftForeArm 6.654964 0.000000 100.782030
LeftHand -14.656004 -0.000000 42.420358
LeftHandThumb1 -26.253704 0.000000 33.147579
RightShoulder -8.190824 -20.363191 1.305136
RightArm 10.250471 -18.929415 61.955952
RightForeArm 189.012532 -0.000000 21.672791
RightHand 1.016035 0.000000 2.256538
RightHandThumb1 -24.326973 -0.000000 -32.862282
LeftUpLeg -10.101528 -11.943896 12.050553
LeftLeg 14.908331 -0.000000 -0.000000
LeftFoot -10.656285 -19.735226 -11.657874
LeftToeBase 15.444878 -0.000000 -0.000000
RightUpLeg -50.621424 2.764381 -11.155633
RightLeg 105.428770 -0.000000 -0.000000
RightFoot -2.181707 3.235905 -3.292556
RightToeBase 0.363747 -0.000000 -0.000000
911
root 3.847052 37.688977 0.118157 -6.590649 38.771892 -16.835004
Spine 4.840963 2.313295 17.890431
Head 4.901262 -15.554912 9.245532
LeftShoulder -2.336783 -9.164452 7.220190
LeftArm 3.495922 -10.536135 -58.784941
LeftForeArm 6.640367 -0.000000 100.957306
LeftHand -14.763988 -0.000000 42.663791
LeftHandThumb1 -26.253704 0.000000 33.147579
RightShoulder -8.094280 -20.357111 1.301650
RightArm 10.386448 -19.053852 61.913230
RightForeArm 188.958586 0.000000 21.754119
RightHand 0.931583 -0.000000 2.647767
RightHandThumb1 -24.326973 -0.000000 -32.862282
LeftUpLeg -10.050063 -11.783164 11.945594
LeftLeg 14.853365 -0.000000 -0.000000
LeftFoot -10.740526 -19.412742 -11.787038
LeftToeBase 15.443942 -0.000000 -0.000000
RightUpLeg -50.889700 2.183051 -10.653081
RightLeg 104.835471 -0.000000 -0.000000
RightFoot -2.129755 2.949605 -3.328600
RightToeBase 0.336135 -0.000000 -0.000000
912
root 3.846101 37.685904 0.099336 -6.322202 38.326263 -16.662599
Spine 4.848314 2.711050 17.734821
Head 5.065461 -15.391582 9.156329
LeftShoulder -2.418328 -9.143895 7.236840
LeftArm 3.474463 -10.518418 -58.775728
LeftForeArm 6.777831 0.000000 101.142714
LeftHand -14.766271 -0.000000 42.601365
LeftHandThumb1 -26.253704 0.000000 33.147579
RightShoulder -8.066356 -20.367972 1.321007
RightArm 10.518142 -19.049673 61.872950
RightForeArm 189.073687 -0.000000 21.877375
RightHand 0.999194 -0.000000 2.483611
RightHandThumb1 -24.326973 -0.000000 -32.862282
LeftUpLeg -10.108171 -11.486877 11.859134
LeftLeg 14.867814 -0.000000 -0.000000
LeftFoot -10.789708 -19.290406 -11.737349
LeftToeBase 15.534126 -0.000000 -0.000000
RightUpLeg -51.207271 1.509303 -10.058469
RightLeg 104.208722 -0.000000 -0.000000
RightFoot -2.006184 2.722337 -3.172804
RightToeBase 0.437279 -0.000000 -0.000000
913
root 3.842224 37.681788 0.079124 -5.956589 37.841606 -16.474939
Spine 4.745709 3.147031 17.556796
Head 5.287224 -15.168133 9.033154
LeftShoulder -2.529256 -9.087956 7.219118
LeftArm 3.473276 -10.488113 -58.680018
LeftForeArm 6.803171 -0.000000 101.340935
LeftHand -14.755771 -0.000000 42.462050
LeftHandThumb1 -26.253704 0.000000 33.147579
RightShoulder -8.045308 -20.379235 1.333999
RightArm 10.657087 -19.142539 61.828311
RightForeArm 189.095031 -0.000000 21.974786
RightHand 0.919078 0.000000 2.485309
RightHandThumb1 -24.326973 -0.000000 -32.862282
LeftUpLeg -10.250834 -11.153211 11.784090
LeftLeg 14.911510 -0.000000 -0.000000
LeftFoot -10.867452 -19.113159 -11.505663
LeftToeBase 15.301606 -0.000000 -0.000000
RightUpLeg -51.645907 0.814841 -9.385227
RightLeg 103.557628 -0.000000 -0.000000
RightFoot -1.843092 2.547060 -2.864605
RightToeBase 0.581645 -0.000000 -0.000000
914
root 3.841861 37.677894 0.062357 -5.737852 37.330977 -16.288980
Spine 4.826670 3.536424 17.406118
Head 5.492913 -14.920675 8.838087
LeftShoulder -2.594528 -9.063188 7.185519
LeftArm 3.432192 -10.495844 -58.574908
LeftForeArm 6.843783 -0.000000 101.528283
LeftHand -14.741953 -0.000000 42.493036
LeftHandThumb1 -26.253704 0.000000 33.147579
RightShoulder -7.939600 -20.336117 1.262298
RightArm 10.755849 -19.059007 61.898449
RightForeArm 189.245503 -0.000000 22.003196
RightHand 0.871484 0.000000 2.386014
RightHandThumb1 -24.326973 -0.000000 -32.862282
LeftUpLeg -10.222345 -10.880798 11.690160
LeftLeg 14.897723 -0.000000 -0.000000
LeftFoot -10.917806 -18.943149 -11.528169
LeftToeBase 15.258440 -0.000000 -0.000000
RightUpLeg -51.939435 0.143060 -8.620949
RightLeg 102.883386 -0.000000 -0.000000
RightFoot -1.711798 2.383730 -2.215748
RightToeBase 0.836323 -0.000000 -0.000000
915
root 3.839724 37.673362 0.040977 -5.393066 36.804460 -16.088166
Spine 4.763459 3.948670 17.227246
Head 5.765861 -14.647346 8.588034
LeftShoulder -2.698135 -9.000735 7.144534
LeftArm 3.378035 -10.529554 -58.466757
LeftForeArm 6.767238 -0.000000 101.750547
LeftHand -14.680385 -0.000000 42.150905
LeftHandThumb1 -26.253704 0.000000 33.147579
RightShoulder -7.873653 -20.334395 1.241929
RightArm 10.882879 -19.070278 61.875479
RightForeArm 189.357661 -0.000000 22.084116
RightHand 0.839820 -0.000000 2.460581
RightHandThumb1 -24.326973 -0.000000 -32.862282
LeftUpLeg -10.316836 -10.561217 11.604883
LeftLeg 14.892207 -0.000000 -0.000000
LeftFoot -10.960111 -18.783114 -11.558175
LeftToeBase 15.223473 -0.000000 -0.000000
RightUpLeg -52.364881 -0.547121 -7.809266
RightLeg 102.202161 -0.000000 -0.000000
RightFoot -1.586263 2.366132 -1.546628
RightToeBase 0.994133 -0.000000 -0.000000
916
root 3.839479 37.667165 0.022210 -5.145773 36.286141 -15.865035
Spine 4.846125 4.286117 17.017455
Head 5.841067 -14.261208 8.479052
LeftShoulder -2.810033 -8.969599 7.098371
LeftArm 3.379642 -10.591431 -58.343720
LeftForeArm 6.836308 0.000000 101.919619
LeftHand -14.661408 -0.000000 42.246098
LeftHandThumb1 -26.253704 0.000000 33.147579
RightShoulder -7.753562 -20.301213 1.202939
RightArm 11.004336 -19.073492 61.868062
RightForeArm 189.465537 -0.000000 22.205229
RightHand 0.820644 0.000000 2.359715
RightHandThumb1 -24.326973 -0.000000 -32.862282
LeftUpLeg -10.301775 -10.224856 11.478071
LeftLeg 14.888079 -0.000000 -0.000000
LeftFoot -10.988652 -18.687447 -11.624605
LeftToeBase 15.221816 -0.000000 -0.000000
RightUpLeg -52.666076 -1.224525 -6.988557
RightLeg 101.505521 -0.000000 -0.000000
RightFoot -1.529852 2.547653 -0.755009
RightToeBase 1.154541 -0.000000 -0.000000
